<svg width="24" height="24" viewBox="0 0 24 24" fill="none" xmlns="http://www.w3.org/2000/svg">
<g id="Frame 10">
<path id="Phone" fill-rule="evenodd" clip-rule="evenodd" d="M20.8866 20.084C21.0737 19.9026 21.261 19.7208 21.4448 19.5338C22.1866 18.7926 22.1866 17.8918 21.4353 17.1223C20.5619 16.2403 19.6887 15.3677 18.8058 14.495C18.0922 13.7819 17.1907 13.7819 16.4676 14.495L16.1384 14.823L16.0582 14.9029C15.6473 15.3116 15.2351 15.7217 14.8335 16.1371C14.6927 16.2872 14.5612 16.3247 14.3828 16.2215C14.2405 16.143 14.0953 16.0719 13.9507 16.0011L13.9489 16.0002C13.7312 15.8938 13.5149 15.788 13.3122 15.6585C11.7157 14.6639 10.3822 13.3784 9.20838 11.9334C8.62611 11.2202 8.10021 10.4508 7.74341 9.58755C7.66825 9.40927 7.68704 9.29668 7.82787 9.15592C8.38105 8.63142 8.91534 8.08824 9.44977 7.54491L9.45263 7.54201C10.2038 6.78195 10.2038 5.89993 9.45263 5.13988C9.17115 4.85247 8.8857 4.56921 8.59871 4.28458C8.45461 4.14175 8.31033 3.99859 8.16606 3.85437C8.01885 3.70739 7.87286 3.56041 7.72686 3.41341C7.43469 3.11939 7.14235 2.82535 6.84191 2.53133C6.11882 1.82759 5.21732 1.81821 4.49423 2.53133C4.27239 2.74911 4.0552 2.96841 3.83836 3.1874C3.51327 3.51563 3.1887 3.84321 2.85085 4.16402C2.33426 4.66133 2.07139 5.26186 2.01503 5.9656C1.93057 7.11037 2.21222 8.18945 2.6066 9.24977C3.42364 11.4361 4.65384 13.369 6.14691 15.1425C8.16606 17.5446 10.5794 19.4494 13.4061 20.8193C14.6739 21.4386 15.998 21.9172 17.4254 21.9923C18.4021 22.0486 19.266 21.8046 19.9515 21.0352C20.2468 20.7046 20.5646 20.3964 20.8834 20.0871L20.8866 20.084Z" fill="#753ED6"/>
</g>
</svg>
