<svg width="24" height="24" viewBox="0 0 24 24" fill="none" xmlns="http://www.w3.org/2000/svg">
<g id="marker 2">
<g id="Group">
<g id="Group_2">
<path id="Vector" d="M11.9216 4.84116C10.0734 4.84116 8.56982 6.34477 8.56982 8.19296C8.56982 10.0412 10.0734 11.5448 11.9216 11.5448C13.7698 11.5448 15.2734 10.0411 15.2734 8.19296C15.2734 6.34477 13.7699 4.84116 11.9216 4.84116Z" fill="#753ED6"/>
</g>
</g>
<g id="Group_3">
<g id="Group_4">
<path id="Vector_2" d="M11.9221 0C7.33332 0 3.6001 3.73322 3.6001 8.32195C3.6001 10.1989 4.91677 13.2923 7.5135 17.5162C9.41204 20.6043 11.3374 23.2105 11.3566 23.2365L11.9221 24L12.4875 23.2365C12.5067 23.2105 14.4321 20.6043 16.3306 17.5162C18.9273 13.2923 20.244 10.1989 20.244 8.32195C20.244 3.73322 16.5108 0 11.9221 0ZM11.9221 12.9518C9.29799 12.9518 7.16321 10.817 7.16321 8.193C7.16321 5.56894 9.29804 3.43416 11.9221 3.43416C14.5461 3.43416 16.6809 5.56898 16.6809 8.193C16.6809 10.817 14.5461 12.9518 11.9221 12.9518Z" fill="#753ED6"/>
</g>
</g>
</g>
</svg>
