<svg width="167" height="130" viewBox="0 0 167 130" fill="none" xmlns="http://www.w3.org/2000/svg">
<g id="nike-3">
<g id="Group">
<path id="Vector" fill-rule="evenodd" clip-rule="evenodd" d="M37 0H167V130H37V0Z" fill="white"/>
<path id="Vector_2" fill-rule="evenodd" clip-rule="evenodd" d="M60.0483 72.4067C59.0448 72.4067 58.2591 73.1088 58.2591 74.1332C58.2591 75.1584 59.0488 75.8564 60.0483 75.8564C61.0471 75.8564 61.8376 75.1537 61.8376 74.1332C61.8376 73.1088 61.0512 72.4067 60.0483 72.4067ZM60.0483 75.3627C59.3327 75.3627 58.802 74.84 58.802 74.1332C58.802 73.4271 59.3287 72.9004 60.0483 72.9004C60.7592 72.9004 61.294 73.4352 61.294 74.1332C61.294 74.8272 60.7544 75.3627 60.0483 75.3627ZM77.4587 66.3679H68.7484L69.7385 51.2283L64.0821 66.3679H55.9937L68.8273 32.1481H77.4337L76.4403 47.4954L82.2039 32.1481H90.293L77.4587 66.3679ZM78.5094 66.3679L91.3424 32.1481H99.4309L86.5978 66.3679H78.5094Z" fill="black"/>
<path id="Vector_3" fill-rule="evenodd" clip-rule="evenodd" d="M55.0611 54.5726C43.7584 67.846 33.0963 85.5073 42.5141 93.6402C51.6397 101.522 63.0463 96.8552 70.8238 93.7441C78.6013 90.6329 164.566 53.302 164.566 53.302C165.395 52.8872 165.24 52.3686 164.203 52.6276C163.785 52.7321 70.6168 77.9813 70.6168 77.9813C58.7941 81.3002 45.3136 74.067 55.0611 54.5726Z" fill="black"/>
<path id="Vector_4" fill-rule="evenodd" clip-rule="evenodd" d="M60.3537 74.2546C60.6046 74.2424 60.8008 74.1129 60.8008 73.7656C60.8008 73.3178 60.5081 73.2051 60.0192 73.2051H59.3164V75.0618H59.7851V74.2714H59.864L60.291 75.0618H60.8298L60.3537 74.2546ZM60.0529 73.9538H59.7858V73.5228H60.0111C60.1493 73.5228 60.3078 73.539 60.3078 73.7191C60.3078 73.9119 60.2161 73.9538 60.0529 73.9538ZM141.356 32.0435C140.353 32.0435 139.567 32.7462 139.567 33.77C139.567 34.7944 140.358 35.4925 141.356 35.4925C142.355 35.4925 143.146 34.7897 143.146 33.77C143.146 32.7462 142.361 32.0435 141.356 32.0435ZM141.356 35.0001C140.641 35.0001 140.11 34.4775 140.11 33.7707C140.11 33.0645 140.637 32.5378 141.356 32.5378C142.067 32.5378 142.603 33.0726 142.603 33.7707C142.603 34.4647 142.063 35.0001 141.356 35.0001Z" fill="black"/>
<path id="Vector_5" fill-rule="evenodd" clip-rule="evenodd" d="M141.662 33.8915C141.913 33.8793 142.11 33.7498 142.11 33.4025C142.11 32.9547 141.816 32.8421 141.328 32.8421H140.625V34.6981H141.093V33.9083H141.173L141.599 34.6981H142.139L141.662 33.8915ZM141.36 33.5907H141.093V33.1597H141.319C141.457 33.1597 141.616 33.1766 141.616 33.3566C141.616 33.5489 141.524 33.5907 141.36 33.5907ZM136.027 37.8517L138.201 32.1481H113.521L105.047 42.4142L108.959 32.1481H100.767L88.0361 66.3679H96.1245L101.56 52.0579L101.932 66.3679L126.75 66.3139L129.113 59.7315H119.677L122.777 51.436H130.554L132.947 45.0586H125.17L127.836 37.8517H136.027ZM109.956 64.0863L109.438 46.251L121.667 32.8238L109.956 64.0863Z" fill="black"/>
</g>
</g>
</svg>
