<svg width="48" height="48" viewBox="0 0 48 48" fill="none" xmlns="http://www.w3.org/2000/svg">
<g id="book 1">
<g id="Group">
<path id="Vector" d="M39.75 0H12.9375C9.52566 0 6.75 2.77566 6.75 6.1875V41.25C6.75 44.972 9.77803 48 13.5 48H39.75C40.5785 48 41.25 47.3284 41.25 46.5C41.25 45.6716 40.5785 45 39.75 45H13.5C11.4323 45 9.75 43.3177 9.75 41.25C9.75 39.1823 11.4323 37.5 13.5 37.5H39.75C40.5785 37.5 41.25 36.8284 41.25 36V1.5C41.25 0.671625 40.5785 0 39.75 0ZM9.75 34.8217V6.1875C9.75 4.42706 11.1771 3 12.9375 3H13.0312C13.2901 3 13.5 3.20991 13.5 3.46875V34.0466C13.5 34.2918 13.3113 34.4981 13.0667 34.5138C12.1212 34.5741 11.2282 34.83 10.4274 35.2413C10.1178 35.4003 9.75 35.1697 9.75 34.8217Z" fill="#753ED6"/>
<path id="Vector_2" d="M39.75 39.75H13.5C12.6715 39.75 12 40.4216 12 41.25C12 42.0784 12.6715 42.75 13.5 42.75H39.75C40.5785 42.75 41.25 42.0784 41.25 41.25C41.25 40.4216 40.5785 39.75 39.75 39.75Z" fill="#753ED6"/>
</g>
</g>
</svg>
