<svg width="48" height="48" viewBox="0 0 48 48" fill="none" xmlns="http://www.w3.org/2000/svg">
<g id="settings 1" clip-path="url(#clip0_320_26123)">
<path id="Vector" d="M46.8706 18.5347L43.1814 17.7327C42.8606 16.7505 42.4633 15.7925 41.9941 14.8696L44.0365 11.6927C44.4012 11.1251 44.321 10.3799 43.8442 9.90308L38.0969 4.15576C37.6201 3.67896 36.8749 3.59875 36.3073 3.9635L33.1304 6.00586C32.2075 5.53674 31.2495 5.1394 30.2673 4.8186L29.4653 1.12939C29.3221 0.470215 28.7384 0 28.0638 0H19.9362C19.2616 0 18.6779 0.470215 18.5347 1.12939L17.7327 4.8186C16.7505 5.1394 15.7925 5.53674 14.8696 6.00586L11.6927 3.9635C11.1251 3.59875 10.3799 3.67896 9.90308 4.15576L4.15576 9.90308C3.67896 10.3799 3.59875 11.1251 3.9635 11.6927L6.00586 14.8696C5.53674 15.7925 5.1394 16.7505 4.8186 17.7327L1.12939 18.5347C0.470215 18.6782 0 19.2616 0 19.9362V28.0638C0 28.7384 0.470215 29.3218 1.12939 29.4653L4.8186 30.2673C5.1394 31.2495 5.53674 32.2075 6.00586 33.1304L3.9635 36.3073C3.59875 36.8749 3.67896 37.6201 4.15576 38.0969L9.90308 43.8442C10.3799 44.321 11.1251 44.4012 11.6927 44.0365L14.8696 41.9941C15.7925 42.4633 16.7505 42.8606 17.7327 43.1814L18.5347 46.8706C18.6779 47.5298 19.2616 48 19.9362 48H28.0638C28.7384 48 29.3221 47.5298 29.4653 46.8706L30.2673 43.1814C31.2495 42.8606 32.2075 42.4633 33.1304 41.9941L36.3073 44.0365C36.8749 44.4012 37.6201 44.3214 38.0969 43.8442L43.8442 38.0969C44.321 37.6201 44.4012 36.8749 44.0365 36.3073L41.9941 33.1304C42.4633 32.2075 42.8606 31.2495 43.1814 30.2673L46.8706 29.4653C47.5298 29.3218 48 28.7384 48 28.0638V19.9362C48 19.2616 47.5298 18.6782 46.8706 18.5347ZM32.6056 24C32.6056 28.745 28.745 32.6056 24 32.6056C19.255 32.6056 15.3944 28.745 15.3944 24C15.3944 19.255 19.255 15.3944 24 15.3944C28.745 15.3944 32.6056 19.255 32.6056 24Z" fill="#753ED6"/>
</g>
<defs>
<clipPath id="clip0_320_26123">
<rect width="48" height="48" fill="white"/>
</clipPath>
</defs>
</svg>
