<svg width="48" height="48" viewBox="0 0 48 48" fill="none" xmlns="http://www.w3.org/2000/svg">
<g id="task 1">
<g id="Group">
<path id="Vector" d="M35.2031 25.6875C29.0515 25.6875 24.0469 30.6922 24.0469 36.8438C24.0469 42.9953 29.0515 48 35.2031 48C41.4064 48 46.4531 42.9953 46.4531 36.8438C46.4531 30.6922 41.4064 25.6875 35.2031 25.6875ZM38.6272 35.494L34.8772 39.994C34.6083 40.3166 34.2114 40.5 33.797 40.5C33.7431 40.5 33.689 40.4969 33.6347 40.4906C33.1633 40.4359 32.7513 40.1471 32.539 39.7226L31.039 36.7226C30.6917 36.028 30.9733 35.1833 31.6679 34.836C32.3625 34.4885 33.2073 34.7702 33.5546 35.4649L34.093 36.5417L36.4665 33.6935C36.9638 33.0969 37.8505 33.0164 38.4471 33.5134C39.0438 34.0106 39.1244 34.8973 38.6272 35.494Z" fill="#753ED6"/>
<path id="Vector_2" d="M34.597 8.01122L28.8912 2.11069C28.8885 2.10788 28.8857 2.10497 28.883 2.10216C27.5693 0.766219 25.7412 0 23.8678 0H5.76562C3.43941 0 1.54688 1.89253 1.54688 4.21875V40.6875C1.54688 43.0137 3.43941 44.9062 5.76562 44.9062H23.8022C22.1857 42.627 21.2344 39.8445 21.2344 36.8438C21.2344 29.1413 27.5007 22.875 35.2031 22.875C35.6777 22.875 36.1467 22.8988 36.6094 22.9447V12.9356C36.6094 11.0823 35.8947 9.33375 34.597 8.01122ZM16.4531 31.4062H8.95312C8.1765 31.4062 7.54688 30.7766 7.54688 30C7.54688 29.2234 8.1765 28.5938 8.95312 28.5938H16.4531C17.2297 28.5938 17.8594 29.2234 17.8594 30C17.8594 30.7766 17.2297 31.4062 16.4531 31.4062ZM16.4531 23.9062H8.95312C8.1765 23.9062 7.54688 23.2766 7.54688 22.5C7.54688 21.7234 8.1765 21.0938 8.95312 21.0938H16.4531C17.2297 21.0938 17.8594 21.7234 17.8594 22.5C17.8594 23.2766 17.2297 23.9062 16.4531 23.9062ZM16.4531 16.4062H8.95312C8.1765 16.4062 7.54688 15.7766 7.54688 15C7.54688 14.2234 8.1765 13.5938 8.95312 13.5938H16.4531C17.2297 13.5938 17.8594 14.2234 17.8594 15C17.8594 15.7766 17.2297 16.4062 16.4531 16.4062ZM25.4531 23.9062H23.9531C23.1765 23.9062 22.5469 23.2766 22.5469 22.5C22.5469 21.7234 23.1765 21.0938 23.9531 21.0938H25.4531C26.2297 21.0938 26.8594 21.7234 26.8594 22.5C26.8594 23.2766 26.2297 23.9062 25.4531 23.9062ZM25.4531 16.4062H23.9531C23.1765 16.4062 22.5469 15.7766 22.5469 15C22.5469 14.2234 23.1765 13.5938 23.9531 13.5938H25.4531C26.2297 13.5938 26.8594 14.2234 26.8594 15C26.8594 15.7766 26.2297 16.4062 25.4531 16.4062Z" fill="#753ED6"/>
</g>
</g>
</svg>
