<svg width="48" height="48" viewBox="0 0 48 48" fill="none" xmlns="http://www.w3.org/2000/svg">
<g id="clock 1" clip-path="url(#clip0_320_26119)">
<g id="Group">
<g id="Group_2">
<path id="Vector" d="M23.9999 0C10.7451 0 0 10.7451 0 23.9999C0 37.2547 10.7451 47.9999 23.9999 47.9999C37.2547 47.9999 47.9999 37.2547 47.9999 23.9999C47.9858 10.7511 37.2489 0.0141629 23.9999 0ZM25.7143 23.9999C25.7143 24.9468 24.9468 25.7143 23.9999 25.7143H10.2857C9.3389 25.7143 8.57139 24.9468 8.57139 23.9999C8.57139 23.0531 9.3389 22.2856 10.2857 22.2856H22.2857V10.2857C22.2857 9.3389 23.0532 8.57139 24 8.57139C24.9469 8.57139 25.7143 9.3389 25.7143 10.2857V23.9999Z" fill="#753ED6"/>
</g>
</g>
</g>
<defs>
<clipPath id="clip0_320_26119">
<rect width="48" height="48" fill="white"/>
</clipPath>
</defs>
</svg>
